<?xml version="1.0" encoding="iso-8859-1"?>
<!-- Uploaded to: SVG Repo, www.svgrepo.com, Generator: SVG Repo Mixer Tools -->
<svg height="800px" width="800px" version="1.1" id="Layer_1" xmlns="http://www.w3.org/2000/svg" xmlns:xlink="http://www.w3.org/1999/xlink" 
	 viewBox="0 0 512 512" xml:space="preserve">
<g>
	<path style="fill:#003A7F;" d="M10.954,462.181c0-131.421,58.005-248.755,129.558-248.755c29.371,0,59.137,16.198,78.191,48.206
		c49.374,82.945,37.278,200.549,37.278,200.549H10.954z"/>
	<path style="fill:#003A7F;" d="M368.765,417.95c0,13.849-11.227,25.076-25.076,25.076c-13.849,0-25.076-11.227-25.076-25.076
		H368.765z"/>
	<path style="fill:#003A7F;" d="M418.917,417.95c0,13.849-11.227,25.076-25.076,25.076c-13.849,0-25.076-11.227-25.076-25.076
		H418.917z"/>
	<path style="fill:#003A7F;" d="M76.175,417.95c0,13.849-11.227,25.076-25.076,25.076s-25.076-11.227-25.076-25.076H76.175z"/>
	<path style="fill:#003A7F;" d="M126.326,417.95c0,13.849-11.227,25.076-25.076,25.076s-25.076-11.227-25.076-25.076H126.326z"/>
</g>
<path style="fill:#FFFFFF;" d="M13.148,417.95h449.16c30.703,0,49.455-33.735,33.245-59.811l0,0
	c-36.656-58.967-101.163-94.823-170.595-94.823H63.875C63.875,263.316,19.504,325.135,13.148,417.95z"/>
<g>
	<path style="fill:#C2EDFF;" d="M487.268,353.346h-129.56c-15.419,0-28.036-12.616-28.036-28.036v-0.348
		c0-15.419,12.616-28.036,28.036-28.036h78.482L487.268,353.346z"/>
	<path style="fill:#C2EDFF;" d="M259.163,353.346h-74.881c-15.419,0-28.036-12.616-28.036-28.036v-0.348
		c0-15.419,12.616-28.036,28.036-28.036h74.881c15.419,0,28.036,12.616,28.036,28.036v0.348
		C287.199,340.729,274.583,353.346,259.163,353.346z"/>
	<path style="fill:#C2EDFF;" d="M48.062,296.925h36.439c15.42,0,28.036,12.616,28.036,28.036v0.348
		c0,15.42-12.616,28.036-28.036,28.036H26.25L48.062,296.925z"/>
</g>
<path d="M394.011,397.402h0.137c5.77,0,10.448-4.678,10.448-10.448s-4.679-10.448-10.448-10.448h-0.137
	c-5.77,0-10.448,4.678-10.448,10.448S388.242,397.402,394.011,397.402z"/>
<path d="M184.283,363.794h74.88c21.221,0,38.485-17.264,38.485-38.484v-0.348c0-21.22-17.264-38.484-38.485-38.484h-74.88
	c-21.221,0-38.485,17.264-38.485,38.484v0.348C145.798,346.529,163.061,363.794,184.283,363.794z M166.694,324.961
	c0-9.698,7.891-17.587,17.589-17.587h74.88c9.698,0,17.589,7.889,17.589,17.587v0.348c0,9.698-7.891,17.588-17.589,17.588h-74.88
	c-9.698,0-17.589-7.889-17.589-17.588V324.961z"/>
<path d="M501.515,451.732h-0.137c-5.77,0-10.448,4.678-10.448,10.448s4.679,10.448,10.448,10.448h0.137
	c5.77,0,10.448-4.678,10.448-10.448S507.285,451.732,501.515,451.732z"/>
<path d="M467.577,451.733h-62.765c10.951-3.565,19.583-12.31,22.983-23.334h34.513c18.267,0,34.472-9.533,43.347-25.499
	c8.875-15.966,8.416-34.762-1.228-50.276c-15.844-25.486-37.056-47.344-61.922-64.009c-0.365-0.278-0.746-0.535-1.147-0.763
	c-4.47-2.954-9.041-5.76-13.734-8.368c-31.325-17.412-66.826-26.615-102.664-26.615H225.23
	c-24.316-32.651-53.551-49.89-84.718-49.89c-38.385,0-74.222,28.688-100.91,80.778C15.172,331.438,0.996,395.108,0.528,458.917
	C0.189,459.945,0,461.04,0,462.182c0,5.771,4.679,10.448,10.448,10.448h457.129c5.77,0,10.448-4.678,10.448-10.448
	S473.347,451.733,467.577,451.733z M22.055,438.368c4.381,6.215,10.699,10.964,18.073,13.365H21.535
	C21.642,447.254,21.813,442.796,22.055,438.368z M40.882,428.399h20.436c-2.639,2.581-6.244,4.179-10.217,4.179
	S43.521,430.98,40.882,428.399z M76.175,443.089c3.913,3.903,8.731,6.895,14.105,8.645H62.07
	C67.444,449.983,72.262,446.992,76.175,443.089z M91.033,428.399h20.436c-2.639,2.581-6.244,4.179-10.217,4.179
	S93.673,430.98,91.033,428.399z M135.204,428.399h174.531c3.399,11.024,12.032,19.769,22.983,23.334H112.221
	C123.173,448.167,131.805,439.423,135.204,428.399z M333.472,428.399h20.436c-2.639,2.581-6.244,4.179-10.217,4.179
	S336.111,430.98,333.472,428.399z M368.765,443.089c3.913,3.903,8.731,6.895,14.105,8.645h-28.21
	C360.035,449.983,364.852,446.992,368.765,443.089z M393.841,432.579c-3.974,0-7.579-1.599-10.217-4.179h20.436
	C401.42,430.98,397.815,432.579,393.841,432.579z M471.785,342.897H357.708c-9.698,0-17.589-7.889-17.589-17.588v-0.348
	c0-9.698,7.891-17.588,17.589-17.588h75.534C447.533,317.267,460.512,329.184,471.785,342.897z M393.699,286.477h-35.991
	c-21.221,0-38.485,17.264-38.485,38.484v0.348c0,21.22,17.264,38.484,38.485,38.484h129.051c5.499,8.951,5.741,19.762,0.631,28.954
	c-5.136,9.239-14.513,14.755-25.083,14.755H24.868c0.433-3.39,0.901-6.759,1.408-10.1h333.933c5.77,0,10.448-4.678,10.448-10.448
	s-4.679-10.448-10.448-10.448H30.004c0.883-4.295,1.836-8.53,2.842-12.712h51.655c21.221,0,38.485-17.264,38.485-38.484v-0.348
	c0-21.22-17.264-38.484-38.485-38.484H61.877c2.454-4.434,4.995-8.674,7.615-12.711H324.96
	C348.949,273.766,372.166,278.189,393.699,286.477z M51.567,307.373h32.934c9.698,0,17.589,7.889,17.589,17.587v0.348
	c0,9.698-7.891,17.588-17.589,17.588H38.517C42.335,330.324,46.71,318.428,51.567,307.373z M140.511,223.875
	c23.908,0,43.329,13.672,57.591,28.994H85.422C102.107,234.484,120.937,223.875,140.511,223.875z"/>
<path style="fill:#27B5F7;" d="M355.371,181.03h136.142c0-26.937-21.779-48.85-48.553-48.85c-1.672,0-3.339,0.093-4.998,0.26
	c-8.419-22.136-29.628-37.086-53.671-37.086c-24.045,0-45.25,14.951-53.669,37.086c-1.66-0.167-3.327-0.26-5.002-0.26
	c-26.769,0-48.549,21.913-48.549,48.85H355.371z"/>
<path style="fill:#FFAE18;" d="M479.745,149.201c0,0,20.028-15.472,21.775-44.007c1.868-30.527-24.793-55.376-55.376-55.376
	c-27.389,0-50.117,19.887-54.57,46.007c0,0,33.147,3.684,46.386,36.616C463.118,128.883,479.745,149.201,479.745,149.201z"/>
<path d="M511.969,105.194c0-36.295-29.529-65.824-65.824-65.824c-28.994,0-54.003,18.675-62.627,45.55
	c-25.113,0.292-48.126,14.748-59.547,36.835c-28.248,0.784-51.601,21.624-56.432,48.827h-50.913c-5.77,0-10.448,4.678-10.448,10.448
	s4.679,10.448,10.448,10.448h60.444c5.77,0,10.448-4.678,10.448-10.448c0-21.174,17.091-38.401,38.101-38.401
	c1.257,0,2.588,0.07,3.954,0.208c4.699,0.475,9.135-2.265,10.814-6.682c6.905-18.155,24.549-30.352,43.905-30.352
	s37,12.197,43.905,30.352c1.679,4.416,6.113,7.149,10.815,6.682c1.365-0.138,2.694-0.208,3.949-0.208
	c11.579,0,21.962,5.235,28.956,13.475c0.033,0.047,0.056,0.078,0.062,0.085c0.016,0.018,0.033,0.031,0.049,0.049
	c3.472,4.128,6.102,8.999,7.603,14.344h-124.26c-5.77,0-10.448,4.678-10.448,10.448s4.679,10.448,10.448,10.448h136.142
	c5.77,0,10.448-4.678,10.448-10.448c0-11.066-3.032-21.431-8.304-30.306C505.383,138.55,511.969,122.438,511.969,105.194z
	 M446.145,60.266c24.773,0,44.927,20.155,44.927,44.927c0,10.103-4.02,22.217-10.162,30.475c-9.874-8.359-22.501-13.53-36.3-13.914
	c-8.364-16.175-22.945-28.257-40.015-33.683C411.368,71.51,427.554,60.266,446.145,60.266z"/>
<path d="M323.503,191.478h-0.163c-5.77,0-10.448-4.678-10.448-10.448s4.679-10.448,10.448-10.448h0.163
	c5.77,0,10.448,4.678,10.448,10.448S329.273,191.478,323.503,191.478z"/>
<path d="M183.355,191.478h-0.163c-5.77,0-10.448-4.678-10.448-10.448s4.679-10.448,10.448-10.448h0.163
	c5.77,0,10.448,4.678,10.448,10.448S189.126,191.478,183.355,191.478z"/>
<path d="M195.129,153.959h-60.444c-5.77,0-10.448-4.678-10.448-10.448s4.679-10.448,10.448-10.448h60.444
	c5.77,0,10.448,4.678,10.448,10.448S200.899,153.959,195.129,153.959z"/>
<path d="M101.414,153.959h-0.163c-5.77,0-10.448-4.678-10.448-10.448s4.679-10.448,10.448-10.448h0.163
	c5.77,0,10.448,4.678,10.448,10.448S107.184,153.959,101.414,153.959z"/>
</svg>